<svg width="1753" height="2363" viewBox="0 0 1753 2363" fill="none" xmlns="http://www.w3.org/2000/svg">
<path d="M48.7928 501.188C48.3963 498.018 48.0791 497.701 44.8276 497.225C47.9998 496.829 48.317 496.512 48.7928 493.262C49.1893 496.433 49.5066 496.749 52.758 497.225C49.5858 497.621 49.2686 498.018 48.7928 501.188Z" fill="white" fill-opacity="0.1"/>
<path d="M83.7386 64.3103C83.3421 61.1397 83.0249 60.8227 79.7734 60.347C82.9456 59.9504 83.2628 59.6334 83.7386 56.3838C84.1351 59.5544 84.4524 59.8713 87.7038 60.347C84.5316 60.743 84.2144 61.1397 83.7386 64.3103Z" fill="white" fill-opacity="0.1"/>
<path d="M307.976 339.997C307.58 336.826 307.263 336.509 304.011 336.033C307.183 335.637 307.501 335.32 307.976 332.07C308.373 335.241 308.69 335.558 311.942 336.033C308.769 336.429 308.452 336.826 307.976 339.997Z" fill="white" fill-opacity="0.1"/>
<path d="M548.679 102.028C548.679 103.648 547.365 104.961 545.745 104.961C544.125 104.961 542.811 103.648 542.811 102.028C542.811 100.408 544.125 99.0955 545.745 99.0955C547.365 99.0955 548.679 100.408 548.679 102.028Z" fill="white" fill-opacity="0.1"/>
<path d="M144.395 234.598C144.395 236.218 143.081 237.531 141.46 237.531C139.84 237.531 138.526 236.218 138.526 234.598C138.526 232.978 139.84 231.666 141.46 231.666C143.081 231.666 144.395 232.978 144.395 234.598Z" fill="white" fill-opacity="0.1"/>
<path d="M158.446 505.851C158.446 507.471 157.133 508.784 155.512 508.784C153.892 508.784 152.578 507.471 152.578 505.851C152.578 504.231 153.892 502.918 155.512 502.918C157.133 502.918 158.446 504.231 158.446 505.851Z" fill="white" fill-opacity="0.1"/>
<path d="M199.055 347.619C199.055 349.238 197.741 350.552 196.121 350.552C194.5 350.552 193.187 349.238 193.187 347.619C193.187 345.999 194.5 344.686 196.121 344.686C197.741 344.686 199.055 345.999 199.055 347.619Z" fill="white" fill-opacity="0.1"/>
<path d="M725.506 58.5191C723.462 60.5617 720.148 60.5617 718.104 58.5191C716.06 56.4758 716.06 53.1635 718.104 51.1209C720.148 49.0776 723.462 49.0776 725.506 51.1209C727.55 53.1635 727.55 56.4758 725.506 58.5191Z" fill="white" fill-opacity="0.15"/>
<path d="M414.718 235.018C414.718 236.638 413.405 237.951 411.784 237.951C410.163 237.951 408.85 236.638 408.85 235.018C408.85 233.398 410.163 232.085 411.784 232.085C413.405 232.085 414.718 233.398 414.718 235.018Z" fill="white" fill-opacity="0.15"/>
<path d="M250.704 40.0417C250.307 36.8711 249.99 36.5542 246.739 36.0785C249.911 35.6818 250.228 35.3649 250.704 32.1152C251.1 35.2858 251.418 35.6027 254.669 36.0785C251.497 36.4745 251.18 36.8711 250.704 40.0417Z" fill="white" fill-opacity="0.1"/>
<path d="M326.258 244.862C325.862 241.691 325.544 241.375 322.293 240.899C325.465 240.502 325.782 240.185 326.258 236.936C326.655 240.106 326.972 240.423 330.223 240.899C327.051 241.295 326.734 241.691 326.258 244.862Z" fill="white" fill-opacity="0.1"/>
<path d="M1168.72 1038.07C1169.12 1041.24 1169.44 1041.56 1172.69 1042.04C1169.52 1042.43 1169.2 1042.75 1168.72 1046C1168.33 1042.83 1168.01 1042.51 1164.76 1042.04C1167.93 1041.64 1168.25 1041.24 1168.72 1038.07Z" fill="white" fill-opacity="0.1"/>
<path d="M1388.11 398.313C1388.5 401.484 1388.82 401.801 1392.07 402.277C1388.9 402.673 1388.58 402.99 1388.11 406.24C1387.71 403.069 1387.39 402.752 1384.14 402.277C1387.31 401.881 1387.63 401.484 1388.11 398.313Z" fill="white" fill-opacity="0.1"/>
<path d="M1353.16 835.191C1353.56 838.362 1353.87 838.679 1357.13 839.155C1353.95 839.551 1353.64 839.868 1353.16 843.118C1352.76 839.947 1352.45 839.63 1349.2 839.155C1352.37 838.759 1352.69 838.362 1353.16 835.191Z" fill="white" fill-opacity="0.1"/>
<path d="M1128.92 559.505C1129.32 562.676 1129.64 562.993 1132.89 563.468C1129.72 563.865 1129.4 564.182 1128.92 567.432C1128.53 564.261 1128.21 563.944 1124.96 563.468C1128.13 563.072 1128.45 562.676 1128.92 559.505Z" fill="white" fill-opacity="0.1"/>
<path d="M1454.32 1043.07C1454.32 1041.45 1455.63 1040.13 1457.25 1040.13C1458.87 1040.13 1460.18 1041.45 1460.18 1043.07C1460.18 1044.69 1458.87 1046 1457.25 1046C1455.63 1046 1454.32 1044.69 1454.32 1043.07Z" fill="white" fill-opacity="0.1"/>
<path d="M888.221 797.474C888.221 795.854 889.535 794.541 891.156 794.541C892.776 794.541 894.09 795.854 894.09 797.474C894.09 799.094 892.776 800.406 891.156 800.406C889.535 800.406 888.221 799.094 888.221 797.474Z" fill="white" fill-opacity="0.1"/>
<path d="M1292.5 664.903C1292.5 663.284 1293.82 661.971 1295.44 661.971C1297.06 661.971 1298.37 663.284 1298.37 664.903C1298.37 666.524 1297.06 667.836 1295.44 667.836C1293.82 667.836 1292.5 666.524 1292.5 664.903Z" fill="white" fill-opacity="0.1"/>
<path d="M1278.45 393.651C1278.45 392.031 1279.77 390.718 1281.39 390.718C1283.01 390.718 1284.32 392.031 1284.32 393.651C1284.32 395.27 1283.01 396.584 1281.39 396.584C1279.77 396.584 1278.45 395.27 1278.45 393.651Z" fill="white" fill-opacity="0.1"/>
<path d="M1237.85 551.883C1237.85 550.263 1239.16 548.95 1240.78 548.95C1242.4 548.95 1243.71 550.263 1243.71 551.883C1243.71 553.503 1242.4 554.815 1240.78 554.815C1239.16 554.815 1237.85 553.503 1237.85 551.883Z" fill="white" fill-opacity="0.1"/>
<path d="M695.502 1011.72C698.145 1010.55 701.237 1011.74 702.407 1014.38C703.577 1017.02 702.382 1020.11 699.739 1021.28C697.096 1022.45 694.005 1021.26 692.835 1018.62C691.664 1015.97 692.859 1012.89 695.502 1011.72Z" fill="white" fill-opacity="0.15"/>
<path d="M1100.09 967.964C1100.09 965.075 1102.44 962.733 1105.33 962.733C1108.22 962.733 1110.56 965.075 1110.56 967.964C1110.56 970.853 1108.22 973.196 1105.33 973.196C1102.44 973.196 1100.09 970.853 1100.09 967.964Z" fill="white" fill-opacity="0.15"/>
<path d="M711.395 840.983C713.439 838.94 716.753 838.94 718.797 840.983C720.841 843.026 720.841 846.338 718.797 848.381C716.753 850.424 713.439 850.424 711.395 848.381C709.351 846.338 709.351 843.026 711.395 840.983Z" fill="white" fill-opacity="0.15"/>
<path d="M777.559 970.263C777.559 968.643 778.872 967.33 780.493 967.33C782.113 967.33 783.427 968.643 783.427 970.263C783.427 971.883 782.113 973.196 780.493 973.196C778.872 973.196 777.559 971.883 777.559 970.263Z" fill="white" fill-opacity="0.15"/>
<path d="M1022.18 664.484C1022.18 662.864 1023.5 661.551 1025.12 661.551C1026.74 661.551 1028.05 662.864 1028.05 664.484C1028.05 666.104 1026.74 667.416 1025.12 667.416C1023.5 667.416 1022.18 666.104 1022.18 664.484Z" fill="white" fill-opacity="0.15"/>
<path d="M1186.2 859.46C1186.59 862.63 1186.91 862.947 1190.16 863.423C1186.99 863.82 1186.67 864.137 1186.2 867.386C1185.8 864.216 1185.48 863.899 1182.23 863.423C1185.4 863.027 1185.72 862.63 1186.2 859.46Z" fill="white" fill-opacity="0.1"/>
<path d="M909.701 985.658C910.098 988.828 910.415 989.145 913.667 989.621C910.494 990.018 910.177 990.335 909.701 993.584C909.305 990.414 908.988 990.097 905.736 989.621C908.908 989.225 909.226 988.828 909.701 985.658Z" fill="white" fill-opacity="0.1"/>
<path d="M1110.64 654.64C1111.04 657.81 1111.36 658.127 1114.61 658.603C1111.44 659 1111.12 659.317 1110.64 662.566C1110.25 659.396 1109.93 659.079 1106.68 658.603C1109.85 658.207 1110.17 657.81 1110.64 654.64Z" fill="white" fill-opacity="0.1"/>
<path d="M1288.29 956.536C1288.68 959.706 1289 960.023 1292.25 960.499C1289.08 960.896 1288.76 961.213 1288.29 964.462C1287.89 961.292 1287.57 960.975 1284.32 960.499C1287.49 960.103 1287.81 959.706 1288.29 956.536Z" fill="white" fill-opacity="0.1"/>
<path d="M1529.39 1570.31C1529.79 1567.14 1530.11 1566.82 1533.36 1566.34C1530.18 1565.95 1529.87 1565.63 1529.39 1562.38C1528.99 1565.55 1528.68 1565.87 1525.43 1566.34C1528.6 1566.74 1528.92 1567.14 1529.39 1570.31Z" fill="white" fill-opacity="0.1"/>
<path d="M1748.9 1943.37C1749.29 1940.2 1749.61 1939.89 1752.86 1939.41C1749.69 1939.01 1749.37 1938.7 1748.9 1935.45C1748.5 1938.62 1748.18 1938.94 1744.93 1939.41C1748.1 1939.81 1748.42 1940.2 1748.9 1943.37Z" fill="white" fill-opacity="0.1"/>
<path d="M1496.34 1921.5C1496.73 1918.32 1497.05 1918.01 1500.3 1917.53C1497.13 1917.14 1496.81 1916.82 1496.34 1913.57C1495.94 1916.74 1495.62 1917.06 1492.37 1917.53C1495.54 1917.93 1495.86 1918.32 1496.34 1921.5Z" fill="white" fill-opacity="0.1"/>
<path d="M1063.77 1680.36C1064.17 1677.19 1064.49 1676.88 1067.74 1676.4C1064.57 1676 1064.25 1675.69 1063.77 1672.44C1063.38 1675.61 1063.06 1675.92 1059.81 1676.4C1062.98 1676.8 1063.3 1677.19 1063.77 1680.36Z" fill="white" fill-opacity="0.1"/>
<path d="M1296.58 1428.58C1296.98 1425.41 1297.29 1425.09 1300.54 1424.62C1297.37 1424.22 1297.05 1423.9 1296.58 1420.65C1296.18 1423.82 1295.87 1424.14 1292.61 1424.62C1295.79 1425.01 1296.1 1425.41 1296.58 1428.58Z" fill="white" fill-opacity="0.1"/>
<path d="M1346.99 1549.32C1346.99 1550.94 1348.3 1552.25 1349.92 1552.25C1351.54 1552.25 1352.86 1550.94 1352.86 1549.32C1352.86 1547.7 1351.54 1546.38 1349.92 1546.38C1348.3 1546.38 1346.99 1547.7 1346.99 1549.32Z" fill="white" fill-opacity="0.1"/>
<path d="M911.118 1832.38C911.118 1834 912.431 1835.32 914.052 1835.32C915.673 1835.32 916.986 1834 916.986 1832.38C916.986 1830.76 915.673 1829.45 914.052 1829.45C912.431 1829.45 911.118 1830.76 911.118 1832.38Z" fill="white" fill-opacity="0.1"/>
<path d="M1584.8 1634.35C1584.8 1635.97 1586.12 1637.29 1587.74 1637.29C1589.36 1637.29 1590.67 1635.97 1590.67 1634.35C1590.67 1632.73 1589.36 1631.42 1587.74 1631.42C1586.12 1631.42 1584.8 1632.73 1584.8 1634.35Z" fill="white" fill-opacity="0.1"/>
<path d="M1030.61 1417.88C1030.61 1419.5 1031.92 1420.81 1033.55 1420.81C1035.17 1420.81 1036.48 1419.5 1036.48 1417.88C1036.48 1416.26 1035.17 1414.95 1033.55 1414.95C1031.92 1414.95 1030.61 1416.26 1030.61 1417.88Z" fill="white" fill-opacity="0.1"/>
<path d="M1654.7 1747.93C1654.7 1749.55 1656.01 1750.86 1657.63 1750.86C1659.25 1750.86 1660.56 1749.55 1660.56 1747.93C1660.56 1746.31 1659.25 1745 1657.63 1745C1656.01 1745 1654.7 1746.31 1654.7 1747.93Z" fill="white" fill-opacity="0.1"/>
<path d="M1563.4 1982.14C1563.4 1983.76 1564.71 1985.07 1566.33 1985.07C1567.95 1985.07 1569.27 1983.76 1569.27 1982.14C1569.27 1980.52 1567.95 1979.21 1566.33 1979.21C1564.71 1979.21 1563.4 1980.52 1563.4 1982.14Z" fill="white" fill-opacity="0.1"/>
<path d="M1510.87 1697.45C1510.87 1699.07 1512.18 1700.38 1513.8 1700.38C1515.42 1700.38 1516.73 1699.07 1516.73 1697.45C1516.73 1695.83 1515.42 1694.52 1513.8 1694.52C1512.18 1694.52 1510.87 1695.83 1510.87 1697.45Z" fill="white" fill-opacity="0.1"/>
<path d="M1552 1811.57C1554.65 1812.74 1557.74 1811.54 1558.91 1808.9C1560.08 1806.26 1558.88 1803.17 1556.24 1802C1553.6 1800.83 1550.51 1802.02 1549.34 1804.67C1548.17 1807.31 1549.36 1810.4 1552 1811.57Z" fill="white" fill-opacity="0.15"/>
<path d="M1167.01 1797.02C1167.01 1799.9 1169.35 1802.25 1172.24 1802.25C1175.14 1802.25 1177.48 1799.9 1177.48 1797.02C1177.48 1794.13 1175.14 1791.78 1172.24 1791.78C1169.35 1791.78 1167.01 1794.13 1167.01 1797.02Z" fill="white" fill-opacity="0.15"/>
<path d="M1340.58 1710.5C1342.62 1712.54 1345.94 1712.54 1347.98 1710.5C1350.03 1708.46 1350.03 1705.15 1347.98 1703.1C1345.94 1701.06 1342.62 1701.06 1340.58 1703.1C1338.54 1705.15 1338.54 1708.46 1340.58 1710.5Z" fill="white" fill-opacity="0.15"/>
<path d="M1529.31 1441.18C1529.31 1442.8 1530.62 1444.11 1532.24 1444.11C1533.86 1444.11 1535.18 1442.8 1535.18 1441.18C1535.18 1439.56 1533.86 1438.25 1532.24 1438.25C1530.62 1438.25 1529.31 1439.56 1529.31 1441.18Z" fill="white" fill-opacity="0.15"/>
<path d="M1208.16 1522.72C1208.16 1524.34 1209.47 1525.65 1211.09 1525.65C1212.72 1525.65 1214.03 1524.34 1214.03 1522.72C1214.03 1521.1 1212.72 1519.79 1211.09 1519.79C1209.47 1519.79 1208.16 1521.1 1208.16 1522.72Z" fill="white" fill-opacity="0.15"/>
<path d="M1177.78 1979.32C1178.17 1976.15 1178.49 1975.84 1181.74 1975.36C1178.57 1974.96 1178.25 1974.65 1177.78 1971.4C1177.38 1974.57 1177.06 1974.88 1173.81 1975.36C1176.98 1975.76 1177.3 1976.15 1177.78 1979.32Z" fill="white" fill-opacity="0.1"/>
<path d="M948.088 1604.28C948.485 1601.11 948.802 1600.79 952.053 1600.32C948.881 1599.92 948.564 1599.6 948.088 1596.36C947.692 1599.53 947.374 1599.84 944.123 1600.32C947.295 1600.71 947.612 1601.11 948.088 1604.28Z" fill="white" fill-opacity="0.1"/>
<path d="M802.078 1742.37C802.474 1739.2 802.791 1738.88 806.043 1738.41C802.871 1738.01 802.554 1737.69 802.078 1734.44C801.681 1737.62 801.364 1737.93 798.113 1738.41C801.285 1738.8 801.602 1739.2 802.078 1742.37Z" fill="white" fill-opacity="0.1"/>
<path d="M1027.21 2036.79C1027.61 2039.96 1027.93 2040.27 1031.18 2040.75C1028.01 2041.15 1027.69 2041.46 1027.21 2044.71C1026.82 2041.54 1026.5 2041.23 1023.25 2040.75C1026.42 2040.35 1026.74 2039.96 1027.21 2036.79Z" fill="white" fill-opacity="0.1"/>
<path d="M774.656 2058.67C775.052 2061.84 775.369 2062.15 778.621 2062.63C775.449 2063.03 775.131 2063.34 774.656 2066.59C774.259 2063.42 773.942 2063.1 770.69 2062.63C773.863 2062.23 774.18 2061.84 774.656 2058.67Z" fill="white" fill-opacity="0.1"/>
<path d="M251.646 1884.69C252.043 1887.86 252.36 1888.18 255.611 1888.65C252.439 1889.05 252.122 1889.37 251.646 1892.62C251.25 1889.45 250.932 1889.13 247.681 1888.65C250.853 1888.26 251.17 1887.86 251.646 1884.69Z" fill="white" fill-opacity="0.1"/>
<path d="M189.437 2147.78C189.437 2146.16 190.751 2144.85 192.372 2144.85C193.992 2144.85 195.306 2146.16 195.306 2147.78C195.306 2149.4 193.992 2150.71 192.372 2150.71C190.751 2150.71 189.437 2149.4 189.437 2147.78Z" fill="white" fill-opacity="0.1"/>
<path d="M863.122 2345.81C863.122 2344.19 864.436 2342.87 866.057 2342.87C867.677 2342.87 868.991 2344.19 868.991 2345.81C868.991 2347.43 867.677 2348.74 866.057 2348.74C864.436 2348.74 863.122 2347.43 863.122 2345.81Z" fill="white" fill-opacity="0.1"/>
<path d="M933.014 2232.23C933.014 2230.61 934.328 2229.3 935.949 2229.3C937.569 2229.3 938.883 2230.61 938.883 2232.23C938.883 2233.85 937.569 2235.16 935.949 2235.16C934.328 2235.16 933.014 2233.85 933.014 2232.23Z" fill="white" fill-opacity="0.1"/>
<path d="M841.719 1998.02C841.719 1996.4 843.033 1995.09 844.653 1995.09C846.273 1995.09 847.587 1996.4 847.587 1998.02C847.587 1999.64 846.273 2000.95 844.653 2000.95C843.033 2000.95 841.719 1999.64 841.719 1998.02Z" fill="white" fill-opacity="0.1"/>
<path d="M789.185 2282.71C789.185 2281.09 790.498 2279.78 792.119 2279.78C793.739 2279.78 795.053 2281.09 795.053 2282.71C795.053 2284.33 793.739 2285.64 792.119 2285.64C790.498 2285.64 789.185 2284.33 789.185 2282.71Z" fill="white" fill-opacity="0.1"/>
<path d="M830.322 2168.59C832.965 2167.42 836.057 2168.62 837.227 2171.26C838.397 2173.9 837.202 2176.99 834.559 2178.16C831.916 2179.33 828.825 2178.14 827.654 2175.49C826.484 2172.85 827.679 2169.76 830.322 2168.59Z" fill="white" fill-opacity="0.15"/>
<path d="M445.33 2183.15C445.33 2180.26 447.674 2177.91 450.564 2177.91C453.455 2177.91 455.798 2180.26 455.798 2183.15C455.798 2186.04 453.455 2188.38 450.564 2188.38C447.674 2188.38 445.33 2186.04 445.33 2183.15Z" fill="white" fill-opacity="0.15"/>
<path d="M618.899 2269.66C620.943 2267.62 624.257 2267.62 626.301 2269.66C628.345 2271.7 628.345 2275.01 626.301 2277.06C624.257 2279.1 620.943 2279.1 618.899 2277.06C616.855 2275.01 616.855 2271.7 618.899 2269.66Z" fill="white" fill-opacity="0.15"/>
<path d="M456.097 2000.84C456.494 2004.01 456.811 2004.32 460.062 2004.8C456.89 2005.2 456.573 2005.51 456.097 2008.76C455.701 2005.59 455.384 2005.28 452.132 2004.8C455.304 2004.4 455.621 2004.01 456.097 2000.84Z" fill="white" fill-opacity="0.1"/>
<path d="M85.652 1974C86.0485 1977.17 86.3657 1977.49 89.6172 1977.96C86.445 1978.36 86.1278 1978.67 85.652 1981.92C85.2555 1978.75 84.9383 1978.44 81.6868 1977.96C84.859 1977.57 85.1762 1977.17 85.652 1974Z" fill="white" fill-opacity="0.1"/>
</svg>
