<svg xmlns="http://www.w3.org/2000/svg"  viewBox="0 0 50 50" width="50px" height="50px"><path d="M 25 2 C 12.318 2 2 12.318 2 25 C 2 37.682 12.318 48 25 48 C 37.682 48 48 37.682 48 25 C 48 12.318 37.682 2 25 2 z M 30.648438 9.0019531 C 34.47123 8.9383567 37.622625 10.32975 38.28125 12.914062 C 39.22425 16.611063 36.01525 21.032094 31.90625 22.621094 C 28.23725 24.040094 25.204031 23.817203 23.957031 23.408203 C 22.540031 22.943203 21.709813 22.007469 21.507812 21.480469 C 21.428812 21.273469 21.290813 20.928594 21.507812 20.808594 C 21.640812 20.734594 21.692828 20.751531 22.048828 21.144531 C 22.387828 21.517531 23.748031 22.520469 26.332031 22.230469 C 33.115031 21.470469 37.199203 16.199281 35.908203 13.363281 C 35.004203 11.378281 29.777094 10.484281 23.246094 13.738281 C 15.273094 17.711281 14.841437 20.986469 14.773438 22.230469 C 14.586438 25.651469 18.995859 27.451094 21.380859 29.996094 C 21.436859 30.056094 21.490922 30.116734 21.544922 30.177734 C 22.266922 29.908734 23.266469 29.757469 24.855469 29.730469 C 28.713469 29.664469 30.892734 32.206469 30.802734 34.480469 C 30.732734 36.271469 29.089203 37.009547 28.783203 37.060547 C 28.561203 37.098547 28.439203 37.105641 28.408203 36.931641 C 28.386203 36.811641 28.466562 36.75575 28.726562 36.59375 C 28.986563 36.43275 29.765297 35.900688 29.904297 34.929688 C 30.043297 33.959688 29.316516 31.640031 25.603516 31.207031 C 24.287516 31.053031 23.251281 31.157578 22.363281 31.392578 C 23.007281 32.811578 23.131391 35.666953 21.650391 37.876953 C 20.115391 40.166953 17.258609 41.558203 14.474609 40.783203 C 13.576609 40.533203 12.217672 38.677844 13.388672 36.089844 C 14.498672 33.636844 19.239719 31.236969 19.886719 30.917969 L 19.886719 30.90625 C 17.689719 29.01525 12.34675 26.466406 11.59375 22.566406 C 11.37975 21.461406 11.897484 18.814391 15.146484 15.775391 C 17.879484 13.219391 21.681406 11.262625 25.191406 10.015625 C 27.034844 9.360625 28.910804 9.0308606 30.648438 9.0019531 z M 20.798828 32.072266 C 20.733828 32.108266 20.669469 32.143734 20.605469 32.177734 L 20.607422 32.185547 C 20.608422 32.184547 18.401188 33.226656 16.867188 34.847656 C 15.441187 36.354656 15.044844 38.246031 15.839844 38.707031 C 16.576844 39.134031 18.293437 38.628109 19.523438 37.287109 C 19.926437 36.847109 20.255953 36.370328 20.501953 35.861328 C 20.550953 35.759328 20.596672 35.656734 20.638672 35.552734 C 20.680672 35.448734 20.720859 35.343328 20.755859 35.236328 C 21.073859 34.274328 21.106828 33.211266 20.798828 32.072266 z"/></svg>